<?xml version="1.0" encoding="UTF-8"?><svg id="Layer_2" xmlns="http://www.w3.org/2000/svg" xmlns:xlink="http://www.w3.org/1999/xlink" viewBox="0 0 77.0393 105.4159"><defs><style>.cls-1{fill:#fff;}.cls-2{fill:url(#linear-gradient);}</style><linearGradient id="linear-gradient" x1="38.5196" y1="-53.7981" x2="38.5196" y2="-159.2141" gradientTransform="translate(0 -53.7981) scale(1 -1)" gradientUnits="userSpaceOnUse"><stop offset="0" stop-color="#fbb03c"/><stop offset=".1485" stop-color="#faa83a"/><stop offset=".3721" stop-color="#f89336"/><stop offset=".6428" stop-color="#f5722f"/><stop offset=".9481" stop-color="#f04325"/><stop offset="1" stop-color="#f03b24"/></linearGradient></defs><g id="Layer_2-2"><g id="Layer_1-2"><g><path class="cls-2" d="M48.8588,33.8792C43.9425,18.2184,44.2814,13.6266,27.7135,0h0c.0041,.005,10.0238,12.261-4.2112,37.7704-2.8308,5.0729-6.6611,9.5005-11.1145,13.2308C4.7863,57.3685,.0181,66.4827,0,76.6138c-.0178,10.0392,4.6344,17.4187,12.0959,22.1936,1.7197,1.1005,3.5885,2.0626,5.5839,2.8871,5.986,2.4734,13.11,3.7077,20.7571,3.7213,21.2562,.0377,38.5045-9.3714,38.5387-28.6656,.0002-.1304-.0034-.2601-.0047-.3902l.0683,.0758c-.0308-30.1809-30.5154-26.0095-21.1614-54.1388,.733-2.2044-6.9526,2.9305-7.8044,16.5724"/><ellipse class="cls-1" cx="19.4732" cy="81.8311" rx="6.8217" ry="5.7939" transform="translate(-62.3922 101.1593) rotate(-89.8985)"/><ellipse class="cls-1" cx="57.1334" cy="81.8979" rx="6.8217" ry="5.7939" transform="translate(-24.8655 138.8861) rotate(-89.8985)"/></g></g></g></svg>